<svg xmlns="http://www.w3.org/2000/svg" viewBox="0 0 177.9 32.82"><defs><style>.cls-1{fill:#4d4d4d}.cls-5{fill:#c75912}</style><linearGradient id="linear-gradient" x1="1.24" y1="15957.78" x2="24.79" y2="15990.19" gradientTransform="matrix(1 0 0 -1 0 15990.67)" gradientUnits="userSpaceOnUse"><stop offset="0" stop-color="#c85a15"/><stop offset=".63" stop-color="#c85a15"/><stop offset="1" stop-color="#4d6726"/></linearGradient><linearGradient id="linear-gradient-2" x1="17.16" y1="15984.39" x2="30.02" y2="15984.39" gradientTransform="matrix(1 0 0 -1 0 15990.67)" gradientUnits="userSpaceOnUse"><stop offset="0" stop-color="#8eae23"/><stop offset="1" stop-color="#a4c611"/></linearGradient></defs><g id="Layer_2" data-name="Layer 2"><g id="Layer_1-2" data-name="Layer 1"><path class="cls-1" d="M44.46 26.18a7.59 7.59 0 0 1-2.92-2.81 7.85 7.85 0 0 1-1-4 7.88 7.88 0 0 1 1-4 7.54 7.54 0 0 1 2.93-2.81 8.59 8.59 0 0 1 4.18-1 8.81 8.81 0 0 1 3.3.6 6.67 6.67 0 0 1 2.55 1.79l-1.43 1.39a5.73 5.73 0 0 0-4.33-1.83 6.28 6.28 0 0 0-3.1.77 5.56 5.56 0 0 0-2.17 2.13 6.26 6.26 0 0 0 0 6.05 5.53 5.53 0 0 0 2.17 2.12 6.28 6.28 0 0 0 3.1.77 5.75 5.75 0 0 0 4.33-1.85l1.43 1.39a6.84 6.84 0 0 1-2.56 1.8 8.71 8.71 0 0 1-3.31.62 8.43 8.43 0 0 1-4.17-1.13zM65.14 16.45A4.57 4.57 0 0 1 66.43 20v7h-2v-1.51a3.3 3.3 0 0 1-1.5 1.24 5.72 5.72 0 0 1-2.32.43 4.88 4.88 0 0 1-3.14-.94 3.24 3.24 0 0 1-.05-5 5.46 5.46 0 0 1 3.58-.9h3.34v-.42a2.69 2.69 0 0 0-.79-2.09 3.35 3.35 0 0 0-2.33-.72 6.08 6.08 0 0 0-2 .34 5.39 5.39 0 0 0-1.68.91l-.88-1.58a6.23 6.23 0 0 1 2.16-1.11 8.91 8.91 0 0 1 2.66-.39 5.28 5.28 0 0 1 3.66 1.19zM63 25a3.09 3.09 0 0 0 1.27-1.53v-1.63h-3.21c-1.79 0-2.69.6-2.69 1.8a1.63 1.63 0 0 0 .69 1.36 3.08 3.08 0 0 0 1.89.51A3.94 3.94 0 0 0 63 25zM74 15.79a6 6 0 0 1 2.62-.53v2a3.25 3.25 0 0 0-.48 0 3.57 3.57 0 0 0-2.7 1 4 4 0 0 0-1 2.91V27h-2.1V15.37h2v2A3.56 3.56 0 0 1 74 15.79zM82.86 15.79a5.94 5.94 0 0 1 2.62-.53v2a3.33 3.33 0 0 0-.49 0 3.55 3.55 0 0 0-2.69 1 4 4 0 0 0-1 2.91V27h-2.09V15.37h2v2a3.63 3.63 0 0 1 1.65-1.58zM89.83 26.39a5.57 5.57 0 0 1-2.16-2.12 6.43 6.43 0 0 1 0-6.14A5.55 5.55 0 0 1 89.83 16a6.39 6.39 0 0 1 3.17-.74 6.28 6.28 0 0 1 3.11.76 5.55 5.55 0 0 1 2.16 2.11 6.43 6.43 0 0 1 0 6.14 5.57 5.57 0 0 1-2.16 2.12 6.19 6.19 0 0 1-3.11.77 6.29 6.29 0 0 1-3.17-.77zM95 24.8a3.75 3.75 0 0 0 1.4-1.45 4.85 4.85 0 0 0 0-4.29 3.53 3.53 0 0 0-1.4-1.44 4 4 0 0 0-2-.51 4 4 0 0 0-2 .51 3.53 3.53 0 0 0-1.4 1.44 4.68 4.68 0 0 0 0 4.29A3.75 3.75 0 0 0 91 24.8a4 4 0 0 0 2 .52 4 4 0 0 0 2-.52zM108.49 26.35a3.1 3.1 0 0 1-1.14.6 4.82 4.82 0 0 1-1.41.21 3.74 3.74 0 0 1-2.73-.94 3.61 3.61 0 0 1-1-2.71v-6.4h-2v-1.74h2v-2.55h2.11v2.55h3.35v1.74h-3.35v6.31a2.06 2.06 0 0 0 .48 1.46 1.77 1.77 0 0 0 1.35.5 2.53 2.53 0 0 0 1.65-.55zM128 15.37V31.3h-2.11v-6a4.82 4.82 0 0 1-1.77 1.41 5.48 5.48 0 0 1-2.3.48 6.25 6.25 0 0 1-3-.74 5.39 5.39 0 0 1-2.1-2.11 6.18 6.18 0 0 1-.76-3.11 6.14 6.14 0 0 1 .76-3.1 5.41 5.41 0 0 1 2.1-2.09 6.14 6.14 0 0 1 3-.75 5.62 5.62 0 0 1 2.37.5 4.46 4.46 0 0 1 1.79 1.46v-1.88zm-4 9.43a3.62 3.62 0 0 0 1.4-1.45 4.44 4.44 0 0 0 .51-2.15 4.23 4.23 0 0 0-.52-2.13 3.62 3.62 0 0 0-1.41-1.44 3.81 3.81 0 0 0-2-.52 4 4 0 0 0-2 .51 3.62 3.62 0 0 0-1.41 1.44 4.77 4.77 0 0 0 0 4.29 3.85 3.85 0 0 0 1.41 1.45 4 4 0 0 0 2 .52 4 4 0 0 0 2.02-.52zM142.83 15.37V27h-2v-1.73a4.33 4.33 0 0 1-1.68 1.4 5.28 5.28 0 0 1-2.28.49 5.09 5.09 0 0 1-3.67-1.28 5 5 0 0 1-1.35-3.8v-6.71H134v6.47a3.62 3.62 0 0 0 .81 2.56 3 3 0 0 0 2.33.87 3.48 3.48 0 0 0 2.64-1 4 4 0 0 0 1-2.86v-6zM157.35 21.91h-9.46a3.65 3.65 0 0 0 1.35 2.47 4.44 4.44 0 0 0 2.87.94 4.32 4.32 0 0 0 3.37-1.41l1.17 1.36a5.1 5.1 0 0 1-2 1.41 6.92 6.92 0 0 1-2.63.48 6.84 6.84 0 0 1-3.28-.76 5.38 5.38 0 0 1-2.21-2.12 6.08 6.08 0 0 1-.78-3.08 6.15 6.15 0 0 1 .76-3.06 5.39 5.39 0 0 1 2.12-2.14 5.92 5.92 0 0 1 3-.76 5.77 5.77 0 0 1 3 .76 5.36 5.36 0 0 1 2 2.12 6.49 6.49 0 0 1 .74 3.13 6.33 6.33 0 0 1-.02.66zM149.09 18a3.73 3.73 0 0 0-1.2 2.42h7.48a3.77 3.77 0 0 0-1.2-2.41 3.92 3.92 0 0 0-5.08 0zM160.92 26.78a6 6 0 0 1-2.07-1l.88-1.67a6.36 6.36 0 0 0 1.87.88 7.65 7.65 0 0 0 2.22.33c1.85 0 2.77-.53 2.77-1.59a1 1 0 0 0-.37-.83 2.23 2.23 0 0 0-.94-.45 16.1 16.1 0 0 0-1.59-.32 16 16 0 0 1-2.3-.51 3.43 3.43 0 0 1-1.53-1 2.66 2.66 0 0 1-.64-1.91 3 3 0 0 1 1.32-2.54 5.89 5.89 0 0 1 3.54-1 9.86 9.86 0 0 1 2.34.29 6.14 6.14 0 0 1 1.91.77l-.9 1.67a6.06 6.06 0 0 0-3.37-.92 3.86 3.86 0 0 0-2.05.44 1.33 1.33 0 0 0-.7 1.16 1.1 1.1 0 0 0 .4.9 2.58 2.58 0 0 0 1 .49c.38.1.93.22 1.63.35a16.5 16.5 0 0 1 2.28.52 3.37 3.37 0 0 1 1.49.93 2.61 2.61 0 0 1 .61 1.85 2.91 2.91 0 0 1-1.35 2.52 6.4 6.4 0 0 1-3.68.93 9.93 9.93 0 0 1-2.77-.29zM177.9 26.35a3.07 3.07 0 0 1-1.15.6 4.7 4.7 0 0 1-1.4.21 3.73 3.73 0 0 1-2.73-.94 3.61 3.61 0 0 1-1-2.71v-6.4h-2v-1.74h2v-2.55h2.11v2.55h3.35v1.74h-3.35v6.31a2.06 2.06 0 0 0 .48 1.46 1.77 1.77 0 0 0 1.35.5 2.55 2.55 0 0 0 1.65-.55z"/><path d="M30.62 8.54c1.31 0 1.79-3-1.07-3.33.71-1.43-1.67-3.1-4.89-1.79a5.06 5.06 0 0 0-1.9-3c-1.08-.83-2.51-.47-2.51 1a5.13 5.13 0 0 0 .24.83c-3.1-2.14-5.6-.83-4 1.79.84 1.31 1.31 2.26.6 3.81H3.93A4 4 0 0 0 0 11.76v19.18c0 1.79 2 2.86 3.57.6.48-.72 2.51-3.81 3-3.93h13.8a4 4 0 0 0 4.17-3.93V12.83c0-3.93 4.29-1.07 5.48-1.07 1.79 0 2.03-2.14.6-3.22z" fill="url(#linear-gradient)"/><path d="M22.87 23.08a2.51 2.51 0 0 1-2.5 2.5H6.31c-.71.24-3.93 4.53-4.4 5-.12.11-.24 0-.24-.12V11.64a2.51 2.51 0 0 1 2.5-2.5h16.08a2.52 2.52 0 0 1 2.51 2.5v11.44z" fill="#ee7d18"/><path d="M29.19 10a8 8 0 0 0-4.41-.59 2.18 2.18 0 0 0-1.55 1.67 2.68 2.68 0 0 0-1.43-1.94 9.89 9.89 0 0 0-3.69-.36c.48-1.19 1.07-2.62 0-4.17-.12-.24-.95-1.78-.95-1.9a4.6 4.6 0 0 1 3.21 1.78 5 5 0 0 1 .72 1c0-.12.24-.36.24-.48a3.55 3.55 0 0 0 .35-2.5 2.25 2.25 0 0 1-.23-1c.47.11 1.19 1.07 1.31 1.43a5.92 5.92 0 0 1 .59 2.38 5.05 5.05 0 0 1 3.34-1.07 3.55 3.55 0 0 1 1.19.23C27 4.61 24.42 6 24.07 6.76c.47.12 1.43-1 4.64-.36a3.6 3.6 0 0 1 1.19.6 9.29 9.29 0 0 0-3.69 1.19c1.91.35 3.34 1 3.81 2a2.18 2.18 0 0 1-.83-.19z" fill="url(#linear-gradient-2)"/><path class="cls-5" d="M19.06 14.62h-13A1.07 1.07 0 0 1 5 13.55a1.07 1.07 0 0 1 1.08-1.07h13a1.06 1.06 0 0 1 1.07 1.07 1.06 1.06 0 0 1-1.09 1.07zM16.92 18.91H8.1a1.18 1.18 0 0 1-1.19-1.07 1.1 1.1 0 0 1 1.19-1.07h8.82a1.17 1.17 0 0 1 1.19 1.07 1.18 1.18 0 0 1-1.19 1.07zM14.89 23h-4.76a1.07 1.07 0 0 1-1.08-1.07 1.07 1.07 0 0 1 1.08-1.07h4.76a1.17 1.17 0 0 1 1.19 1.07A1.17 1.17 0 0 1 14.89 23z"/></g></g></svg>